<mxfile host="app.diagrams.net" agent="Mozilla/5.0 (Windows NT 10.0; Win64; x64) AppleWebKit/537.36 (KHTML, like Gecko) Chrome/128.0.0.0 Safari/537.36" version="24.7.14">
  <diagram id="Ihbby771SaWTnvjFmwmU" name="Page-1">
    <mxGraphModel dx="1012" dy="2710" grid="1" gridSize="10" guides="1" tooltips="1" connect="1" arrows="1" fold="1" page="1" pageScale="1" pageWidth="850" pageHeight="1100" math="0" shadow="0">
      <root>
        <mxCell id="0" />
        <mxCell id="1" parent="0" />
        <mxCell id="-VSQyIibqqdH1v1gCpfq-20" value="" style="rounded=0;whiteSpace=wrap;html=1;" vertex="1" parent="1">
          <mxGeometry x="80" y="-2100" width="650" height="310" as="geometry" />
        </mxCell>
        <mxCell id="-VSQyIibqqdH1v1gCpfq-1" value="MLMS&lt;br&gt;DB" style="shape=cylinder3;whiteSpace=wrap;html=1;boundedLbl=1;backgroundOutline=1;size=15;" vertex="1" parent="1">
          <mxGeometry x="100" y="-2040" width="60" height="80" as="geometry" />
        </mxCell>
        <mxCell id="-VSQyIibqqdH1v1gCpfq-2" value="Php Scripts" style="rounded=0;whiteSpace=wrap;html=1;" vertex="1" parent="1">
          <mxGeometry x="320" y="-2025" width="120" height="50" as="geometry" />
        </mxCell>
        <mxCell id="-VSQyIibqqdH1v1gCpfq-3" value="Authentication" style="rounded=0;whiteSpace=wrap;html=1;" vertex="1" parent="1">
          <mxGeometry x="590" y="-2025" width="120" height="50" as="geometry" />
        </mxCell>
        <mxCell id="-VSQyIibqqdH1v1gCpfq-4" value="Apache Server" style="rounded=0;whiteSpace=wrap;html=1;" vertex="1" parent="1">
          <mxGeometry x="195" y="-1870" width="370" height="60" as="geometry" />
        </mxCell>
        <mxCell id="-VSQyIibqqdH1v1gCpfq-5" value="" style="endArrow=classic;html=1;rounded=0;entryX=1;entryY=0;entryDx=0;entryDy=27.5;entryPerimeter=0;exitX=0;exitY=0.25;exitDx=0;exitDy=0;" edge="1" parent="1" source="-VSQyIibqqdH1v1gCpfq-2" target="-VSQyIibqqdH1v1gCpfq-1">
          <mxGeometry relative="1" as="geometry">
            <mxPoint x="310" y="-2000" as="sourcePoint" />
            <mxPoint x="420" y="-1900" as="targetPoint" />
          </mxGeometry>
        </mxCell>
        <mxCell id="-VSQyIibqqdH1v1gCpfq-6" value="queries" style="edgeLabel;resizable=0;html=1;;align=center;verticalAlign=middle;" connectable="0" vertex="1" parent="-VSQyIibqqdH1v1gCpfq-5">
          <mxGeometry relative="1" as="geometry" />
        </mxCell>
        <mxCell id="-VSQyIibqqdH1v1gCpfq-9" value="" style="endArrow=classic;html=1;rounded=0;entryX=0;entryY=0.25;entryDx=0;entryDy=0;exitX=1;exitY=0.25;exitDx=0;exitDy=0;" edge="1" parent="1" source="-VSQyIibqqdH1v1gCpfq-2" target="-VSQyIibqqdH1v1gCpfq-3">
          <mxGeometry relative="1" as="geometry">
            <mxPoint x="330" y="-1990" as="sourcePoint" />
            <mxPoint x="170" y="-1990" as="targetPoint" />
          </mxGeometry>
        </mxCell>
        <mxCell id="-VSQyIibqqdH1v1gCpfq-10" value="Credentials" style="edgeLabel;resizable=0;html=1;;align=center;verticalAlign=middle;" connectable="0" vertex="1" parent="-VSQyIibqqdH1v1gCpfq-9">
          <mxGeometry relative="1" as="geometry" />
        </mxCell>
        <mxCell id="-VSQyIibqqdH1v1gCpfq-11" value="" style="endArrow=classic;html=1;rounded=0;entryX=0;entryY=0.75;entryDx=0;entryDy=0;exitX=1;exitY=0;exitDx=0;exitDy=52.5;exitPerimeter=0;" edge="1" parent="1" source="-VSQyIibqqdH1v1gCpfq-1" target="-VSQyIibqqdH1v1gCpfq-2">
          <mxGeometry relative="1" as="geometry">
            <mxPoint x="330" y="-2005" as="sourcePoint" />
            <mxPoint x="170" y="-2002" as="targetPoint" />
          </mxGeometry>
        </mxCell>
        <mxCell id="-VSQyIibqqdH1v1gCpfq-12" value="query result" style="edgeLabel;resizable=0;html=1;;align=center;verticalAlign=middle;" connectable="0" vertex="1" parent="-VSQyIibqqdH1v1gCpfq-11">
          <mxGeometry relative="1" as="geometry" />
        </mxCell>
        <mxCell id="-VSQyIibqqdH1v1gCpfq-13" value="" style="endArrow=classic;html=1;rounded=0;entryX=1;entryY=0.75;entryDx=0;entryDy=0;exitX=0;exitY=0.75;exitDx=0;exitDy=0;" edge="1" parent="1" source="-VSQyIibqqdH1v1gCpfq-3" target="-VSQyIibqqdH1v1gCpfq-2">
          <mxGeometry relative="1" as="geometry">
            <mxPoint x="589" y="-1980" as="sourcePoint" />
            <mxPoint x="600" y="-2005" as="targetPoint" />
          </mxGeometry>
        </mxCell>
        <mxCell id="-VSQyIibqqdH1v1gCpfq-14" value="Authentication Status" style="edgeLabel;resizable=0;html=1;;align=center;verticalAlign=middle;" connectable="0" vertex="1" parent="-VSQyIibqqdH1v1gCpfq-13">
          <mxGeometry relative="1" as="geometry" />
        </mxCell>
        <mxCell id="-VSQyIibqqdH1v1gCpfq-15" value="" style="endArrow=classic;html=1;rounded=0;entryX=0.1;entryY=0.992;entryDx=0;entryDy=0;exitX=0.367;exitY=0.019;exitDx=0;exitDy=0;exitPerimeter=0;entryPerimeter=0;" edge="1" parent="1" source="-VSQyIibqqdH1v1gCpfq-4" target="-VSQyIibqqdH1v1gCpfq-2">
          <mxGeometry relative="1" as="geometry">
            <mxPoint x="170" y="-1977" as="sourcePoint" />
            <mxPoint x="330" y="-1977" as="targetPoint" />
          </mxGeometry>
        </mxCell>
        <mxCell id="-VSQyIibqqdH1v1gCpfq-16" value="Interprets and&lt;div&gt;forwards Request&lt;/div&gt;" style="edgeLabel;resizable=0;html=1;;align=center;verticalAlign=middle;" connectable="0" vertex="1" parent="-VSQyIibqqdH1v1gCpfq-15">
          <mxGeometry relative="1" as="geometry" />
        </mxCell>
        <mxCell id="-VSQyIibqqdH1v1gCpfq-17" value="" style="endArrow=classic;html=1;rounded=0;entryX=0.631;entryY=0.036;entryDx=0;entryDy=0;exitX=0.885;exitY=1.046;exitDx=0;exitDy=0;entryPerimeter=0;exitPerimeter=0;" edge="1" parent="1" source="-VSQyIibqqdH1v1gCpfq-2" target="-VSQyIibqqdH1v1gCpfq-4">
          <mxGeometry relative="1" as="geometry">
            <mxPoint x="360" y="-1829" as="sourcePoint" />
            <mxPoint x="360" y="-1965" as="targetPoint" />
          </mxGeometry>
        </mxCell>
        <mxCell id="-VSQyIibqqdH1v1gCpfq-18" value="Sends&amp;nbsp;&lt;div&gt;response&lt;/div&gt;" style="edgeLabel;resizable=0;html=1;;align=center;verticalAlign=middle;" connectable="0" vertex="1" parent="-VSQyIibqqdH1v1gCpfq-17">
          <mxGeometry relative="1" as="geometry" />
        </mxCell>
        <mxCell id="-VSQyIibqqdH1v1gCpfq-21" value="" style="rounded=0;whiteSpace=wrap;html=1;" vertex="1" parent="1">
          <mxGeometry x="80" y="-1739" width="650" height="300" as="geometry" />
        </mxCell>
        <mxCell id="-VSQyIibqqdH1v1gCpfq-22" value="" style="rounded=0;whiteSpace=wrap;html=1;" vertex="1" parent="1">
          <mxGeometry x="125" y="-1678" width="249" height="220" as="geometry" />
        </mxCell>
        <mxCell id="-VSQyIibqqdH1v1gCpfq-23" value="&lt;font style=&quot;font-size: 18px;&quot;&gt;Client Side&lt;/font&gt;" style="text;html=1;align=center;verticalAlign=middle;whiteSpace=wrap;rounded=0;" vertex="1" parent="1">
          <mxGeometry x="340" y="-1719" width="100" height="30" as="geometry" />
        </mxCell>
        <mxCell id="-VSQyIibqqdH1v1gCpfq-25" value="&lt;font style=&quot;font-size: 18px;&quot;&gt;Server Side&lt;/font&gt;" style="text;html=1;align=center;verticalAlign=middle;whiteSpace=wrap;rounded=0;" vertex="1" parent="1">
          <mxGeometry x="340" y="-2080" width="100" height="30" as="geometry" />
        </mxCell>
        <mxCell id="-VSQyIibqqdH1v1gCpfq-26" value="&lt;font style=&quot;font-size: 18px;&quot;&gt;Admin Action&lt;/font&gt;" style="rounded=0;whiteSpace=wrap;html=1;" vertex="1" parent="1">
          <mxGeometry x="139" y="-1665" width="220" height="60" as="geometry" />
        </mxCell>
        <mxCell id="-VSQyIibqqdH1v1gCpfq-27" value="" style="rounded=0;whiteSpace=wrap;html=1;" vertex="1" parent="1">
          <mxGeometry x="435" y="-1678" width="249" height="220" as="geometry" />
        </mxCell>
        <mxCell id="-VSQyIibqqdH1v1gCpfq-28" value="&lt;font style=&quot;font-size: 18px;&quot;&gt;Customer Action&lt;/font&gt;" style="rounded=0;whiteSpace=wrap;html=1;" vertex="1" parent="1">
          <mxGeometry x="449" y="-1665" width="220" height="60" as="geometry" />
        </mxCell>
        <mxCell id="-VSQyIibqqdH1v1gCpfq-29" value="&lt;font style=&quot;font-size: 18px;&quot;&gt;Manage Food Products&lt;/font&gt;&lt;div&gt;&lt;span style=&quot;font-size: 18px;&quot;&gt;&lt;br&gt;&lt;/span&gt;&lt;div&gt;&lt;font style=&quot;font-size: 18px;&quot;&gt;Manage Orders&lt;/font&gt;&lt;/div&gt;&lt;div&gt;&lt;font style=&quot;font-size: 18px;&quot;&gt;&lt;br&gt;&lt;/font&gt;&lt;/div&gt;&lt;div&gt;&lt;font style=&quot;font-size: 18px;&quot;&gt;Manage Payments&lt;/font&gt;&lt;/div&gt;&lt;/div&gt;" style="text;html=1;align=center;verticalAlign=middle;whiteSpace=wrap;rounded=0;" vertex="1" parent="1">
          <mxGeometry x="139" y="-1595" width="220" height="110" as="geometry" />
        </mxCell>
        <mxCell id="-VSQyIibqqdH1v1gCpfq-30" value="&lt;font style=&quot;font-size: 18px;&quot;&gt;View Food Products&lt;/font&gt;&lt;div&gt;&lt;span style=&quot;font-size: 18px;&quot;&gt;&lt;br&gt;&lt;/span&gt;&lt;div&gt;&lt;span style=&quot;font-size: 18px;&quot;&gt;Add To Cart&lt;/span&gt;&lt;/div&gt;&lt;div&gt;&lt;span style=&quot;font-size: 18px;&quot;&gt;&lt;br&gt;&lt;/span&gt;&lt;/div&gt;&lt;div&gt;&lt;span style=&quot;font-size: 18px;&quot;&gt;Checkout&lt;/span&gt;&lt;/div&gt;&lt;/div&gt;&lt;div&gt;&lt;span style=&quot;font-size: 18px;&quot;&gt;&lt;br&gt;&lt;/span&gt;&lt;/div&gt;" style="text;html=1;align=center;verticalAlign=middle;whiteSpace=wrap;rounded=0;" vertex="1" parent="1">
          <mxGeometry x="449" y="-1585" width="220" height="110" as="geometry" />
        </mxCell>
        <mxCell id="-VSQyIibqqdH1v1gCpfq-31" value="" style="endArrow=classic;html=1;rounded=0;entryX=0.291;entryY=1.017;entryDx=0;entryDy=0;exitX=0.341;exitY=0.001;exitDx=0;exitDy=0;exitPerimeter=0;entryPerimeter=0;" edge="1" parent="1" source="-VSQyIibqqdH1v1gCpfq-21" target="-VSQyIibqqdH1v1gCpfq-4">
          <mxGeometry relative="1" as="geometry">
            <mxPoint x="300" y="-1634" as="sourcePoint" />
            <mxPoint x="301" y="-1770" as="targetPoint" />
          </mxGeometry>
        </mxCell>
        <mxCell id="-VSQyIibqqdH1v1gCpfq-32" value="Http Request" style="edgeLabel;resizable=0;html=1;;align=center;verticalAlign=middle;" connectable="0" vertex="1" parent="-VSQyIibqqdH1v1gCpfq-31">
          <mxGeometry relative="1" as="geometry" />
        </mxCell>
        <mxCell id="-VSQyIibqqdH1v1gCpfq-33" value="" style="endArrow=classic;html=1;rounded=0;entryX=0.552;entryY=0.004;entryDx=0;entryDy=0;entryPerimeter=0;exitX=0.659;exitY=0.994;exitDx=0;exitDy=0;exitPerimeter=0;" edge="1" parent="1" source="-VSQyIibqqdH1v1gCpfq-4" target="-VSQyIibqqdH1v1gCpfq-21">
          <mxGeometry relative="1" as="geometry">
            <mxPoint x="439" y="-1770" as="sourcePoint" />
            <mxPoint x="313" y="-1769" as="targetPoint" />
          </mxGeometry>
        </mxCell>
        <mxCell id="-VSQyIibqqdH1v1gCpfq-34" value="Http Response" style="edgeLabel;resizable=0;html=1;;align=center;verticalAlign=middle;" connectable="0" vertex="1" parent="-VSQyIibqqdH1v1gCpfq-33">
          <mxGeometry relative="1" as="geometry" />
        </mxCell>
      </root>
    </mxGraphModel>
  </diagram>
</mxfile>
